<svg width="15" height="15" viewBox="0 0 15 15" fill="none" xmlns="http://www.w3.org/2000/svg">
<g clip-path="url(#clip0)">
<path d="M2.04517 10.9087C1.47698 10.9087 0.994191 11.1076 0.596395 11.5052C0.198861 11.9028 0 12.3857 0 12.9538C0 13.5221 0.198674 14.0049 0.596395 14.4025C0.994191 14.8001 1.47713 14.999 2.04517 14.999C2.61328 14.999 3.09611 14.8001 3.49383 14.4025C3.8914 14.0049 4.09026 13.5221 4.09026 12.9538C4.09026 12.3856 3.8914 11.9028 3.49383 11.5052C3.09622 11.1076 2.61339 10.9087 2.04517 10.9087Z" fill="#004C99"/>
<path d="M6.75342 8.24563C5.95089 7.43609 5.03128 6.79168 3.99444 6.3124C2.95761 5.83297 1.871 5.54714 0.73485 5.45483H0.681684C0.497039 5.45483 0.344331 5.51524 0.223709 5.63593C0.0745073 5.76361 0 5.93061 0 6.13652V7.57454C0 7.75203 0.0585388 7.90473 0.175654 8.03267C0.292806 8.1606 0.440142 8.2316 0.617698 8.24563C2.24388 8.40192 3.63399 9.05719 4.78791 10.211C5.94189 11.3649 6.59705 12.7551 6.75327 14.3812C6.76752 14.5589 6.83848 14.7062 6.96638 14.8232C7.09424 14.9406 7.24684 14.9993 7.42435 14.9993H8.86245C9.06829 14.9993 9.23514 14.9248 9.36296 14.7756C9.49806 14.6333 9.55832 14.4629 9.5444 14.2641C9.45195 13.1281 9.16608 12.0414 8.68676 11.0047C8.20748 9.96777 7.56296 9.04824 6.75342 8.24563Z" fill="#004C99"/>
<path d="M13.7198 8.94339C12.96 7.24263 11.9161 5.73185 10.5882 4.41094C9.26723 3.08294 7.75652 2.03909 6.05561 1.2792C4.35489 0.519468 2.57421 0.0932806 0.713584 0.000976562H0.681684C0.497039 0.000976562 0.340823 0.064888 0.212963 0.192748C0.0710002 0.320459 0 0.483912 0 0.682773V2.20594C0 2.38353 0.0621951 2.53788 0.186399 2.66929C0.31064 2.80073 0.461483 2.86986 0.639039 2.8771C2.1659 2.96956 3.61631 3.33183 4.99046 3.96382C6.36457 4.59584 7.55759 5.41785 8.56957 6.42961C9.58134 7.44156 10.4033 8.63465 11.0353 10.0088C11.6674 11.3831 12.0262 12.8333 12.1113 14.3601C12.1186 14.5378 12.1876 14.6887 12.3189 14.813C12.4504 14.9372 12.6085 14.9995 12.7931 14.9995H14.3162C14.5151 14.9995 14.6781 14.9285 14.8062 14.7863C14.9483 14.6443 15.0121 14.4776 14.9981 14.2858C14.9059 12.425 14.4796 10.6443 13.7198 8.94339Z" fill="#004C99"/>
</g>
<defs>
<clipPath id="clip0">
<rect width="15" height="15" fill="white"/>
</clipPath>
</defs>
</svg>
