<svg width="15" height="15" viewBox="0 0 15 15" fill="none" xmlns="http://www.w3.org/2000/svg">
<g clip-path="url(#clip0)">
<path d="M14.2193 8.9648C14.3232 8.46346 14.3754 7.97509 14.3754 7.49995C14.3754 6.56897 14.1949 5.67866 13.8334 4.82901C13.4722 3.97944 12.9838 3.24708 12.3686 2.63181C11.7534 2.01654 11.0211 1.52826 10.1715 1.16686C9.32168 0.805691 8.43164 0.624953 7.50052 0.624953C7.02528 0.624953 6.53694 0.677081 6.03564 0.781269C5.35855 0.260434 4.59682 0 3.75045 0C2.71535 0 1.8316 0.366161 1.09914 1.09848C0.366616 1.83101 0.000488281 2.71476 0.000488281 3.74989C0.000488281 4.59625 0.260923 5.35799 0.78169 6.03507C0.677571 6.53634 0.625443 7.02471 0.625443 7.49995C0.625443 8.43083 0.806043 9.32111 1.16735 10.1708C1.52862 11.0204 2.01692 11.7528 2.63223 12.3682C3.24747 12.9834 3.97993 13.4715 4.82951 13.8329C5.67916 14.1943 6.56947 14.3749 7.50045 14.3749C7.97566 14.3749 8.464 14.3227 8.96558 14.2185C9.64249 14.7394 10.4042 15 11.2506 15C12.2856 15 13.1696 14.6336 13.9016 13.9014C14.6342 13.1688 15.0003 12.2851 15.0003 11.2498C15.0001 10.4036 14.7398 9.64199 14.2193 8.9648ZM11.133 10.415C10.9184 10.7959 10.6302 11.1002 10.2689 11.3281C9.90747 11.556 9.50875 11.7299 9.07261 11.8505C8.63646 11.9708 8.18079 12.0312 7.70541 12.0312C6.60528 12.0312 5.65808 11.818 4.86375 11.3914C4.06941 10.9649 3.6723 10.4524 3.6723 9.8533C3.6723 9.56044 3.75535 9.31653 3.92137 9.12105C4.08737 8.92567 4.33313 8.82819 4.65866 8.82819C4.84747 8.82819 5.02318 8.88025 5.18592 8.9843C5.34867 9.08849 5.49838 9.21398 5.63517 9.36052C5.77195 9.50708 5.91996 9.65338 6.07949 9.79994C6.23891 9.94651 6.45051 10.0717 6.71416 10.1759C6.97787 10.2801 7.27573 10.3323 7.60786 10.3323C8.031 10.3323 8.37267 10.2494 8.63335 10.0835C8.89365 9.91727 9.02383 9.70725 9.02383 9.45349C9.02383 9.19291 8.91978 8.99767 8.71154 8.86749C8.5685 8.77606 8.20374 8.65891 7.61778 8.51576L6.19185 8.164C5.80127 8.07295 5.46596 7.96726 5.18596 7.84689C4.90596 7.72636 4.64552 7.56867 4.40469 7.37319C4.16392 7.17795 3.98161 6.93226 3.85789 6.63591C3.73421 6.33977 3.67236 5.993 3.67236 5.59588C3.67236 5.12058 3.78144 4.70242 3.99946 4.34098C4.21748 3.97961 4.50737 3.69636 4.86857 3.4913C5.22984 3.28621 5.61885 3.13325 6.0356 3.03235C6.45218 2.93141 6.8819 2.88096 7.32461 2.88096C7.94973 2.88096 8.54192 2.95586 9.10192 3.10558C9.66178 3.25529 10.124 3.47502 10.4885 3.76474C10.853 4.05455 11.0353 4.37844 11.0353 4.73646C11.0353 5.02932 10.9427 5.28007 10.7569 5.48834C10.5717 5.69658 10.3259 5.80077 10.0198 5.80077C9.85056 5.80077 9.69438 5.76167 9.55113 5.68355C9.40795 5.60546 9.27783 5.51109 9.16041 5.4004C9.04322 5.28979 8.91937 5.18071 8.78922 5.0733C8.65904 4.9659 8.48322 4.87314 8.26212 4.79502C8.04051 4.71689 7.79003 4.6778 7.5101 4.6778C6.57268 4.6778 6.10387 4.92828 6.10387 5.42968C6.10387 5.5403 6.12833 5.63799 6.17711 5.72261C6.22592 5.80723 6.27972 5.87561 6.33821 5.9277C6.39667 5.97986 6.49436 6.03189 6.63114 6.08402C6.76793 6.13618 6.88186 6.1737 6.97298 6.19635C7.06407 6.21913 7.20742 6.2533 7.40266 6.29882L8.41834 6.53316C8.7373 6.60485 9.02198 6.67976 9.27281 6.75778C9.52356 6.83604 9.79207 6.94663 10.0785 7.08991C10.3649 7.23312 10.6025 7.39255 10.7913 7.56836C10.9802 7.74431 11.138 7.96705 11.2651 8.23724C11.3921 8.50749 11.4554 8.80538 11.4554 9.1308C11.4554 9.60604 11.3481 10.0342 11.133 10.415Z" fill="#004C99"/>
</g>
<defs>
<clipPath id="clip0">
<rect width="15" height="15" fill="white"/>
</clipPath>
</defs>
</svg>
