<svg width="15" height="16" viewBox="0 0 15 16" fill="none" xmlns="http://www.w3.org/2000/svg">
<g clip-path="url(#clip0)">
<path d="M3.40818 5.21143H0.185547V15.0317H3.40818V5.21143Z" fill="#004C99"/>
<path d="M13.984 6.1085C13.3071 5.35864 12.4117 4.98364 11.2986 4.98364C10.8884 4.98364 10.5156 5.03484 10.1802 5.1373C9.845 5.23969 9.56185 5.38335 9.33066 5.56835C9.09961 5.75335 8.91559 5.92509 8.77898 6.08357C8.64907 6.23411 8.52203 6.40946 8.39807 6.60782V5.2114H5.18506L5.19491 5.68713C5.20151 6.00433 5.20476 6.98202 5.20476 8.62033C5.20476 10.2588 5.19826 12.3959 5.1852 15.0319H8.39807V9.55174C8.39807 9.21489 8.43368 8.94739 8.50544 8.74903C8.64226 8.41193 8.84875 8.12971 9.12561 7.90188C9.40242 7.67377 9.74574 7.55982 10.156 7.55982C10.7157 7.55982 11.1277 7.75635 11.3914 8.14943C11.655 8.54247 11.7868 9.08588 11.7868 9.77958V15.0316H14.9997V9.40326C14.9995 7.95631 14.6612 6.85811 13.984 6.1085Z" fill="#004C99"/>
<path d="M1.81637 0.483887C1.27608 0.483887 0.838289 0.644169 0.502912 0.964423C0.167569 1.28475 0 1.68915 0 2.17801C0 2.66004 0.162746 3.06305 0.488272 3.3866C0.813696 3.71019 1.24344 3.87207 1.77728 3.87207H1.79681C2.34374 3.87207 2.78488 3.71033 3.12012 3.3866C3.45536 3.06305 3.61971 2.66018 3.61325 2.17801C3.60675 1.68918 3.44062 1.28475 3.11519 0.964423C2.78981 0.644031 2.35671 0.483887 1.81637 0.483887Z" fill="#004C99"/>
</g>
<defs>
<clipPath id="clip0">
<rect width="15" height="15.2212" fill="white" transform="translate(0 0.147461)"/>
</clipPath>
</defs>
</svg>
