<svg width="15" height="16" viewBox="0 0 15 16" fill="none" xmlns="http://www.w3.org/2000/svg">
<g clip-path="url(#clip0)">
<path d="M14.4347 0.722312C14.0571 0.33902 13.6045 0.147461 13.0773 0.147461H1.92489C1.39752 0.147461 0.945129 0.33909 0.567407 0.722312C0.189752 1.10543 0.000976562 1.56456 0.000976562 2.0996V13.4164C0.000976562 13.9514 0.189718 14.4106 0.567407 14.7937C0.945129 15.1769 1.39762 15.3686 1.92489 15.3686H13.0772C13.6043 15.3686 14.057 15.1769 14.4346 14.7937C14.8123 14.4106 15.0009 13.9514 15.0009 13.4164V2.0996C15.0009 1.56446 14.8123 1.10557 14.4347 0.722312ZM5.38689 5.63236C5.97603 5.05438 6.68407 4.76526 7.5109 4.76526C8.34412 4.76526 9.05534 5.05438 9.64462 5.63236C10.2339 6.21044 10.5284 6.90913 10.5284 7.7283C10.5284 8.54736 10.2339 9.24609 9.64462 9.824C9.05534 10.4022 8.34436 10.6913 7.5109 10.6913C6.6841 10.6913 5.97613 10.402 5.38689 9.824C4.79761 9.24602 4.503 8.54736 4.503 7.7283C4.503 6.90913 4.79761 6.21047 5.38689 5.63236ZM13.302 13.0103C13.302 13.1819 13.2432 13.3255 13.1261 13.4412C13.0087 13.5568 12.8689 13.6146 12.706 13.6146H2.26673C2.09749 13.6146 1.95578 13.5568 1.84194 13.4412C1.72794 13.3258 1.67099 13.1819 1.67099 13.0103V6.58859H3.0479C2.91775 7.00486 2.85266 7.43765 2.85266 7.88678C2.85266 9.1555 3.30833 10.2371 4.21979 11.1325C5.13134 12.0275 6.22832 12.4752 7.51086 12.4752C8.35722 12.4752 9.13842 12.2703 9.85481 11.8607C10.571 11.4509 11.137 10.8945 11.554 10.1908C11.9707 9.48718 12.179 8.71914 12.179 7.88682C12.179 7.43768 12.1137 7.005 11.9835 6.58863H13.302V13.0103H13.302V13.0103ZM13.302 4.16073C13.302 4.35232 13.2369 4.51421 13.1064 4.64631C12.9763 4.77852 12.8169 4.84453 12.628 4.84453H10.9288C10.7401 4.84453 10.5804 4.77848 10.4503 4.64631C10.3201 4.51421 10.255 4.35232 10.255 4.16073V2.52579C10.255 2.3408 10.3201 2.18061 10.4503 2.04514C10.5805 1.90974 10.7401 1.84196 10.9288 1.84196H12.628C12.8169 1.84196 12.9763 1.90971 13.1064 2.04514C13.2368 2.18061 13.302 2.3408 13.302 2.52579V4.16073Z" fill="#004C99"/>
</g>
<defs>
<clipPath id="clip0">
<rect width="15" height="15.2212" fill="white" transform="translate(0 0.147461)"/>
</clipPath>
</defs>
</svg>
